# xmcd
#
# Track frame offsets:
#	150
#	14512
#	32880
#	41447
#	51077
#	64397
#	76725
#	88580
#	100305
#	111982
#	122987
#	134275
#	144440
#	155042
#	167855
#
# Disc length: 2382 seconds
#
# Revision: 2
# Processed by: cddbd v1.5.1PL0 Copyright (c) Steve Scherf et al.
# Submitted via: audiograbber 1.83.01
#
DISCID=d1094c0f
DTITLE=Various Artist - Northern Soul 15 Track Demo Sampler
DYEAR=1900
DGENRE=Soul
TTITLE0=Seven Day Lover - James Fountain
TTITLE1=My Hang Up Is You - The Skull Snaps
TTITLE2=Come Go With Me - Gloria Jones 
TTITLE3=Cracked Up Over You - Lee Rogers
TTITLE4=Oh My Darlin' - Jackie Lee
TTITLE5=Walkin' Up A One Way Street - Willie Tee
TTITLE6=Please Let Me In - J.J. Barnes
TTITLE7=Our Love Will Grow - The Showmen
TTITLE8=If That's What You Wanted - Frankie Beverley And The Butlers
TTITLE9=Queen Of Fools - Barbara Mills
TTITLE10=There's Nothing Else To Say - The Incredibles
TTITLE11=You've Been Gone Too Long - Ann Sexton
TTITLE12=She'll Come Running Back - Mel Britt
TTITLE13=Just Lovin' You - Ruby Andrews
TTITLE14=Long After Tonight Is All Over - Jimmy Radcliffe
EXTD=
EXTT0=
EXTT1=
EXTT2=
EXTT3=
EXTT4=
EXTT5=
EXTT6=
EXTT7=
EXTT8=
EXTT9=
EXTT10=
EXTT11=
EXTT12=
EXTT13=
EXTT14=
PLAYORDER=
